<svg width="11" height="11" viewBox="0 0 11 11" fill="none" xmlns="http://www.w3.org/2000/svg">
<path fill-rule="evenodd" clip-rule="evenodd" d="M0.853731 0.146459C0.658476 -0.0488099 0.341894 -0.0488212 0.146625 0.146434C-0.0486445 0.341689 -0.0486558 0.658272 0.146599 0.853541L4.33068 5.03792L0.146434 9.22247C-0.0488213 9.41774 -0.0488099 9.73432 0.14646 9.92958C0.341728 10.1248 0.658311 10.1248 0.853566 9.92955L5.03776 5.74506L9.22196 9.92955C9.41721 10.1248 9.7338 10.1248 9.92907 9.92958C10.1243 9.73432 10.1243 9.41774 9.92909 9.22247L5.74484 5.03792L9.92893 0.853541C10.1242 0.658272 10.1242 0.341689 9.9289 0.146434C9.73363 -0.0488212 9.41705 -0.0488099 9.22179 0.146459L5.03776 4.33079L0.853731 0.146459Z" fill="white"/>
</svg>
