<svg width="170" height="37" xmlns="http://www.w3.org/2000/svg" xmlns:xlink="http://www.w3.org/1999/xlink">
    <defs>
        <filter id="a">
            <feColorMatrix in="SourceGraphic" values="0 0 0 0 1.000000 0 0 0 0 1.000000 0 0 0 0 1.000000 0 0 0 1.000000 0"/>
        </filter>
        <path id="b" d="M0 37h169V0H0z"/>
    </defs>
    <g transform="translate(-70 -60)" filter="url(#a)" fill="none" fill-rule="evenodd">
        <g transform="translate(70.412 60)">
            <path d="M57.097 5.751h18.07L78 0H55.91c-4.258 0-7.51 1.108-9.664 3.294C44.091 5.48 43 8.777 43 13.094V23.91C43 32.596 47.344 37 55.911 37H78l-2.835-5.751H57.092c-2.426 0-4.258-.61-5.445-1.815-1.188-1.204-1.79-3.063-1.79-5.526V13.092c0-4.94 2.368-7.34 7.24-7.34" fill="#161616"/>
            <mask id="c" fill="#fff">
                <use xlink:href="#b"/>
            </mask>
            <path fill="#161616" mask="url(#c)" d="M0 21h12v-6H0zM20 21h12v-6H20zM0 6h32.164L35 0H0zM0 31v6h35l-2.836-6zM93.11 15.64V0H86v37h7.11V21.378H101V15.64zM116.267 15.634H109v5.737h7.267V37l6.733-.01V0h-6.733zM162.088 15.666h-8.16v5.73h8.16v2.512c-.002 4.941-2.39 7.343-7.303 7.343h-9.565c-4.915 0-7.304-2.402-7.304-7.343v-2.512h8.16v-5.73h-8.16v-2.574c.002-4.94 2.39-7.343 7.304-7.343h9.565c4.914 0 7.303 2.402 7.303 7.343v2.574zM155.978 0h-11.957C135.381 0 131 4.405 131 13.092v10.816C131 32.595 135.381 37 144.021 37h11.958C164.619 37 169 32.595 169 23.908V13.092C169 4.405 164.619 0 155.979 0z"/>
        </g>
    </g>
</svg>
