<svg width="148" height="31" xmlns="http://www.w3.org/2000/svg">
    <g fill="#FFF" fill-rule="nonzero">
        <path d="m43.8 20.3.5.4c-1.1 1-2.4 1.5-4 1.5s-3-.6-4.2-1.7c-1.1-1.1-1.7-2.5-1.7-4.2 0-1.6.6-3 1.7-4.2 1.2-1.2 2.5-1.7 4.2-1.7 1.5 0 2.8.5 4 1.5l-.5.4c-1-.9-2.2-1.3-3.5-1.3-1.4 0-2.7.5-3.7 1.5s-1.5 2.3-1.5 3.7c0 1.4.5 2.7 1.5 3.7s2.3 1.5 3.7 1.5c1.3.3 2.5-.2 3.5-1.1M52.9 10.7h.7V19c-.1.9-.5 1.6-1.1 2.2-.7.7-1.6 1.1-2.7 1.1-1 0-1.9-.4-2.7-1.1-.7-.7-1.1-1.6-1.1-2.7v-7.9h.7v7.9c0 .9.3 1.6.9 2.2.6.6 1.3.9 2.2.9.9 0 1.6-.3 2.2-.9.6-.6.9-1.3.9-2.2v-7.8zM58.5 18.2h-2.2v4h-.6V10.7h3c.9.1 1.6.5 2.2 1.1.7.7 1.1 1.6 1.1 2.7 0 1-.4 1.9-1.1 2.7-.5.5-1.1.8-1.7 1l2.7 4.1h-.8l-2.6-4.1zm-2.1-6.9v6.2h2c.9 0 1.6-.3 2.2-.9.6-.6.9-1.3.9-2.2 0-.9-.3-1.6-.9-2.2-.6-.6-1.3-.9-2.2-.9h-2zM72.7 20.3l.5.4c-1.1 1-2.4 1.5-4 1.5s-3-.6-4.2-1.7c-1.1-1.1-1.7-2.5-1.7-4.2 0-1.6.6-3 1.7-4.2 1.1-1.2 2.5-1.7 4.2-1.7 1.5 0 2.8.5 4 1.5l-.5.4c-1-.9-2.1-1.3-3.5-1.3s-2.7.5-3.7 1.5-1.5 2.3-1.5 3.7c0 1.4.5 2.7 1.5 3.7s2.3 1.5 3.7 1.5c1.4.3 2.6-.2 3.5-1.1M75.2 10.7h1v11.5h-1zM88 12.2c1.2 1.2 1.7 2.5 1.7 4.2 0 1.6-.6 3-1.7 4.2-1.2 1.2-2.5 1.7-4.2 1.7-1.6 0-3-.6-4.2-1.7-1.2-1.2-1.7-2.5-1.7-4.2 0-1.6.6-3 1.7-4.2 1.2-1.2 2.5-1.7 4.2-1.7 1.7 0 3.1.6 4.2 1.7m-4.2-1c-1.4 0-2.7.5-3.7 1.5s-1.5 2.3-1.5 3.7c0 1.5.5 2.7 1.5 3.7s2.3 1.5 3.7 1.5c1.4 0 2.7-.5 3.7-1.5s1.5-2.3 1.5-3.7c0-1.4-.5-2.7-1.5-3.7s-2.2-1.5-3.7-1.5M100.6 19.4l1.1 1c-1.4 1.2-2.8 1.9-4.3 1.9-1.6 0-3-.6-4.2-1.7-1.1-1.1-1.7-2.5-1.7-4.2 0-1.6.6-3 1.7-4.2 1.1-1.2 2.5-1.7 4.2-1.7 1.5 0 3 .6 4.3 1.9l-1.1 1c-1-.9-2.1-1.4-3.2-1.4-1.2 0-2.2.4-3.1 1.3-.9.9-1.3 1.9-1.3 3.1 0 1.2.4 2.2 1.3 3.1.9.9 1.9 1.3 3.1 1.3 1.1 0 2.2-.5 3.2-1.4M107.5 10.7l4.2 11.5h-1.6l-1.5-4.1h-3l-1.5 4.1h-1.6l4.2-11.5h.8zm.6 5.9-1-2.7-1 2.7h2zM114.6 18.5v3.7h-1.5V10.7h3.3c.9.1 1.7.5 2.3 1.1.8.8 1.1 1.7 1.1 2.8 0 1.1-.4 2-1.1 2.8-.8.8-1.7 1.1-2.8 1.1h-1.3zm0-6.3V17h1.4c.7 0 1.2-.2 1.7-.7.5-.5.7-1 .7-1.7s-.2-1.2-.7-1.7c-.5-.5-1-.7-1.7-.7h-1.4zM121.5 10.7h1.5v11.5h-1.5zM128.8 12.2v10h-1.5v-10h-2.7v-1.5h6.9v1.5zM136.7 10.7l4.2 11.5h-1.6l-1.5-4.1h-3l-1.5 4.1h-1.6l4.2-11.5h.8zm.5 5.9-1-2.7-1 2.7h2zM142.3 22.2V10.7h1.5v10h4.1v1.5zM75.7 27.4c-.4-.1-.6-.3-.8-.5-.2-.2-.3-.5-.3-.7 0-.3.1-.5.3-.7.2-.2.5-.3.7-.3.3 0 .5.1.7.3.1.1.2.2.2.4l-.3.1c0-.1-.1-.2-.2-.3-.2-.1-.3-.2-.5-.2s-.4.1-.5.2c-.2.1-.2.3-.2.5s.1.4.2.5c.1.1.3.3.6.4.4.1.7.3 1 .6.3.3.4.6.4 1s-.1.7-.4 1c-.3.3-.6.4-1 .4s-.7-.1-1-.4c-.2-.2-.4-.5-.4-.8l.3-.1c0 .3.1.5.3.7.2.2.5.3.8.3.3 0 .6-.1.8-.3.2-.2.4-.5.4-.8 0-.3-.1-.6-.4-.8-.1-.2-.4-.4-.7-.5M77.8 25.2h1v4.9h-1zM79 25.2h.3l2.6 4.4v-4.4h.2v5h-.2l-2.6-4.5v4.5H79zM87 29.4l.2.2c-.5.4-1 .7-1.7.7s-1.3-.2-1.8-.7c-.5-.6-.7-1.2-.7-1.9s.2-1.3.7-1.8c.5-.5 1.1-.7 1.8-.7.6 0 1.2.2 1.7.7l-.2.1c-.4-.4-.9-.6-1.5-.6s-1.1.2-1.6.7c-.4.4-.7 1-.7 1.6 0 .6.2 1.1.7 1.6.4.4 1 .7 1.6.7.6-.1 1.1-.3 1.5-.6M90.4 25.2v.3h-2.2v2.1h2.2v.2h-2.2v2.1h2.2v.3H88v-5zM95.2 25.2v5h-.3v-4.5h-.3l.4-.5zM99.9 28.2c-.3.3-.7.4-1.1.4-.5 0-.9-.2-1.2-.5-.3-.3-.5-.7-.5-1.2s.2-.9.5-1.2c.3-.3.7-.5 1.2-.5s.9.2 1.2.5c.3.3.5.7.5 1.1 0 .7-.2 1.3-.5 1.8s-.7 1-1.2 1.5l-.1.1h-.4c0-.1.1-.1.1-.2.5-.6 1-1.1 1.3-1.6.1 0 .1-.1.2-.2m-.1-.3c.3-.3.4-.6.4-1s-.1-.7-.4-1c-.3-.3-.6-.4-1-.4s-.7.1-1 .4c-.3.3-.4.6-.4 1s.1.7.4 1c.3.3.6.4 1 .4s.7-.1 1-.4M103.3 25.2h.3v3.2h.5v.3h-.5v1.4h-.3v-1.4h-2l2-3.5zm0 .6-1.6 2.6h1.6v-2.6zM105.4 26.8c.1 0 .2-.1.3-.1h.4c.2 0 .4 0 .6.1.5.2.8.5 1 .9.1.3.2.5.2.8 0 .2 0 .3-.1.5-.1.5-.4.8-.9 1-.3.1-.5.2-.8.2-.2 0-.4 0-.5-.1-.4-.1-.7-.3-.9-.6l.2-.2c.2.3.4.4.8.5.1 0 .3.1.4.1.2 0 .5-.1.7-.2.4-.2.6-.5.7-.9 0-.2.1-.3.1-.4 0-.2-.1-.5-.2-.7-.2-.4-.5-.6-.9-.7-.2-.1-.3-.1-.5-.1-.3 0-.5.1-.9.2l-.2-.2.6-1.6v-.1h1.5v.3h-1.3l-.3 1.3zM115.5 27.8h32.4v1h-32.4zM34.4 27.8h32.4v1H34.4zM14.8 29.7C6.7 29.7 0 23 0 14.8 0 6.7 6.7 0 14.8 0 23 0 29.7 6.7 29.7 14.8c0 8.2-6.7 14.9-14.9 14.9m0-28.9C7.1.8.7 7.1.7 14.8S7 28.9 14.8 28.9c7.7 0 14-6.3 14-14.1.1-7.7-6.2-14-14-14"/>
        <path d="M9 20.8c1.2 0 2.3-.4 3.1-1.3.9-.9 1.3-1.9 1.3-3.2 0-1.2-.4-2.3-1.3-3.1-.9-.9-1.9-1.3-3.1-1.3-1.1 0-2.2.5-3.3 1.4l-1.1-1C6 11 7.4 10.4 9 10.4c1.7 0 3.1.6 4.2 1.8 1.2 1.2 1.7 2.6 1.7 4.2 0 1.7-.6 3.1-1.7 4.2-1.2 1.2-2.6 1.7-4.2 1.7-1.5 0-3-.6-4.4-1.9l1.1-1c1.1 1 2.2 1.4 3.3 1.4"/>
        <path d="m23.9 19.4 1.1 1c-1.4 1.3-2.8 1.9-4.4 1.9-1.7 0-3.1-.6-4.2-1.7-1.2-1.2-1.7-2.6-1.7-4.2s.6-3.1 1.7-4.2c1.2-1.2 2.6-1.8 4.2-1.8 1.5 0 3 .6 4.4 1.9l-1.1 1c-1-.9-2.1-1.4-3.3-1.4-1.2 0-2.3.4-3.1 1.3-.9.9-1.3 1.9-1.3 3.1 0 1.2.4 2.3 1.3 3.2.9.9 1.9 1.3 3.1 1.3 1.2 0 2.3-.4 3.3-1.4"/>
        <path d="m15.5 6.2-.6-1.8-.6 1.8h-.1L8 23.5h1l3.8-10.6 2.1-5.8 1.9 5.8 3.9 10.6h1.2z"/>
        <path d="M12.3 16h4.9v1.5h-4.9z"/>
    </g>
</svg>
