<svg width="201" height="44" xmlns="http://www.w3.org/2000/svg" xmlns:xlink="http://www.w3.org/1999/xlink">
    <defs>
        <path id="a" d="M0 44h201V0H0z"/>
    </defs>
    <g fill="none" fill-rule="evenodd">
        <path d="M67.916 6.84H89.6L93 0H66.49c-5.109 0-9.01 1.318-11.596 3.917C52.31 6.517 51 10.437 51 15.572v12.862C51 38.763 56.213 44 66.494 44H93l-3.402-6.84H67.911c-2.912 0-5.11-.725-6.535-2.157-1.425-1.432-2.148-3.643-2.148-6.571V15.569c0-5.874 2.842-8.73 8.688-8.73h-.005" fill="#00FF9D"/>
        <mask id="b" fill="#fff">
            <use xlink:href="#a"/>
        </mask>
        <path fill="#00FF9D" mask="url(#b)" d="M1 25h14v-7H1zM24 25h14v-7H24zM0 7h38.597L42 0H0zM0 37v7h42l-3.403-7zM111.533 18.598V0H103v44h8.533V25.422H121v-6.824z"/>
        <path fill="#313131" mask="url(#b)" d="M138.825 18.592H130v6.822h8.825V44l8.175-.012V0h-8.175zM192.815 18.63h-9.663v6.814h9.663v2.987c-.002 5.876-2.83 8.733-8.649 8.733h-11.327c-5.82 0-8.649-2.857-8.649-8.732v-2.988h9.663V18.63h-9.663V15.57c.002-5.875 2.831-8.732 8.65-8.732h11.326c5.82 0 8.649 2.857 8.649 8.732v3.061zM185.58 0h-14.16C161.188 0 156 5.238 156 15.569v12.863C156 38.762 161.188 44 171.42 44h14.16C195.812 44 201 38.762 201 28.432V15.569C201 5.239 195.812 0 185.58 0z"/>
    </g>
</svg>
