<svg width="96" height="21" xmlns="http://www.w3.org/2000/svg" xmlns:xlink="http://www.w3.org/1999/xlink">
    <defs>
        <path id="a" d="M0 21h96V0H0z"/>
    </defs>
    <g fill="none" fill-rule="evenodd">
        <path d="M32.055 3.264h10.326L44 0H31.377c-2.433 0-4.29.63-5.522 1.87C24.624 3.11 23.999 4.982 24 7.432v6.139C24 18.5 26.482 21 31.378 21H44l-1.62-3.264H32.053c-1.387 0-2.434-.347-3.112-1.03-.679-.683-1.023-1.739-1.023-3.136V7.43c0-2.803 1.353-4.166 4.137-4.166" fill="#161616"/>
        <mask id="b" fill="#fff">
            <use xlink:href="#a"/>
        </mask>
        <path fill="#161616" mask="url(#b)" d="M0 12h7V9H0zM11 12h7V9h-7zM0 3h18.38L20 0H0zM0 18v3h20l-1.62-3zM53.266 8.877V0H49v21h4.266v-8.867H58V8.877zM66.153 8.874H62v3.255h4.153V21L70 20.994V0h-3.847zM91.998 8.892h-4.724v3.252h4.724v1.425c0 2.805-1.383 4.168-4.228 4.168h-5.538c-2.845 0-4.228-1.363-4.228-4.167v-1.426h4.724V8.892h-4.724V7.43c.001-2.805 1.384-4.168 4.228-4.168h5.538c2.845 0 4.228 1.363 4.228 4.168v1.46zM88.461 0H81.54C76.536 0 74 2.5 74 7.43v6.14C74 18.5 76.536 21 81.539 21h6.922C93.464 21 96 18.5 96 13.57V7.43C96 2.5 93.464 0 88.461 0z"/>
    </g>
</svg>
